
<svg xmlns="http://www.w3.org/2000/svg" xml:space="preserve" fill-rule="evenodd" stroke-linejoin="round" stroke-miterlimit="2" clip-rule="evenodd" viewBox="0 0 170 153">

  <path fill="url(#a)" fill-rule="nonzero" d="M79.5 67.5c-6.333 11.667-16.333 17.667-30 18-13.667.333-25-5.5-34-17.5S6.333 43.5 15 30.5s20.5-19.667 35.5-20c15-.333 25.167 6.167 30.5 19.5 5.333 13.333 4.833 25.833-1.5 37.5Z" transform="matrix(1.92466 0 0 1.92467 -3.537 -12.084)"/>
  <path d="M141.167 113.426c12.547-23.115 13.576-47.88 3.01-74.296C133.493 12.418 113.147-.64 83.097.027c-29.72.662-53.178 13.85-70.35 39.605C-4.6 65.656-4.224 90.675 13.791 114.694c17.86 23.816 40.377 35.343 67.5 34.683 27.282-.666 47.233-12.662 59.876-35.95Zm-4.396-2.387c-11.735 21.62-30.277 32.722-55.604 33.338-25.484.621-46.594-10.305-63.377-32.681C1.161 89.524.895 66.426 16.91 42.408c16.188-24.286 38.281-36.76 66.3-37.381 27.69-.616 46.481 11.346 56.326 35.958 9.962 24.91 9.067 48.261-2.764 70.054Z"/>
  <defs>
    <linearGradient id="a" x1="0" x2="1" y1="0" y2="0" gradientTransform="scale(-110.1665) rotate(23.801 1.814 -2.41)" gradientUnits="userSpaceOnUse">
      <stop stop-color="purple" offset="0"/>
      <stop stop-color="red" offset="1" stop-opacity="0"/>
    </linearGradient>
  </defs>
</svg>