<?xml version="1.0" encoding="UTF-8"?>
<svg xmlns="http://www.w3.org/2000/svg" xmlns:xlink="http://www.w3.org/1999/xlink" width="1274.38pt" height="594.01pt" viewBox="0 0 1274.38 594.01" version="1.1">
<defs>
<clipPath id="clip1">
  <path d="M 585 533 L 647 533 L 647 594.011719 L 585 594.011719 Z M 585 533 "/>
</clipPath>
<clipPath id="clip2">
  <path d="M 657 508 L 718 508 L 718 594.011719 L 657 594.011719 Z M 657 508 "/>
</clipPath>
<clipPath id="clip3">
  <path d="M 725 533 L 779 533 L 779 594.011719 L 725 594.011719 Z M 725 533 "/>
</clipPath>
<clipPath id="clip4">
  <path d="M 1230 533 L 1274.378906 533 L 1274.378906 594.011719 L 1230 594.011719 Z M 1230 533 "/>
</clipPath>
</defs>
<g id="surface1">
<path style=" stroke:none;fill-rule:nonzero;fill:rgb(2.69928%,21.199036%,40.39917%);fill-opacity:1;" d="M 8.136719 425.6875 C 18.636719 431.199219 35.4375 436.710938 52.5 436.710938 C 70.875 436.710938 80.589844 429.101563 80.589844 417.546875 C 80.589844 406.523438 72.191406 400.226563 50.925781 392.871094 C 21.527344 382.375 2.101563 366.101563 2.101563 340.375 C 2.101563 310.191406 27.566406 287.347656 69.039063 287.347656 C 89.25 287.347656 103.6875 291.285156 114.191406 296.273438 L 105.265625 328.300781 C 98.4375 324.886719 85.578125 319.902344 68.515625 319.902344 C 51.191406 319.902344 42.789063 328.035156 42.789063 336.960938 C 42.789063 348.25 52.5 353.238281 75.597656 361.902344 C 106.839844 373.449219 121.277344 389.722656 121.277344 414.664063 C 121.277344 444.328125 98.703125 469.523438 50.140625 469.523438 C 29.925781 469.523438 9.976563 464.011719 0 458.5 "/>
<path style=" stroke:none;fill-rule:nonzero;fill:rgb(2.69928%,21.199036%,40.39917%);fill-opacity:1;" d="M 190.578125 303.886719 L 190.578125 338.535156 L 219.191406 338.535156 L 219.191406 367.9375 L 190.578125 367.9375 L 190.578125 414.398438 C 190.578125 429.890625 194.515625 436.976563 206.328125 436.976563 C 211.84375 436.976563 214.464844 436.710938 218.140625 435.921875 L 218.402344 466.117188 C 213.414063 467.949219 203.703125 469.523438 192.675781 469.523438 C 179.816406 469.523438 169.050781 465.0625 162.488281 458.5 C 155.140625 450.890625 151.464844 438.550781 151.464844 420.441406 L 151.464844 367.9375 L 134.402344 367.9375 L 134.402344 338.535156 L 151.464844 338.535156 L 151.464844 314.648438 "/>
<path style=" stroke:none;fill-rule:nonzero;fill:rgb(2.69928%,21.199036%,40.39917%);fill-opacity:1;" d="M 242.289063 380.796875 C 242.289063 361.902344 242.023438 349.5625 241.238281 338.535156 L 275.363281 338.535156 L 276.9375 362.167969 L 277.988281 362.167969 C 284.550781 343.261719 300.039063 335.386719 312.636719 335.386719 C 316.3125 335.386719 318.152344 335.652344 321.039063 336.175781 L 321.039063 373.710938 C 317.890625 373.191406 314.738281 372.660156 310.277344 372.660156 C 295.578125 372.660156 285.601563 380.542969 282.976563 392.871094 C 282.449219 395.5 282.1875 398.652344 282.1875 401.800781 L 282.1875 466.902344 L 242.289063 466.902344 "/>
<path style=" stroke:none;fill-rule:nonzero;fill:rgb(2.69928%,21.199036%,40.39917%);fill-opacity:1;" d="M 417.636719 388.148438 C 417.636719 378.433594 413.4375 362.167969 395.0625 362.167969 C 378.261719 362.167969 371.4375 377.648438 370.386719 388.148438 Z M 370.648438 415.449219 C 371.699219 431.984375 388.238281 439.867188 406.875 439.867188 C 420.523438 439.867188 431.550781 438.027344 442.3125 434.347656 L 447.5625 461.394531 C 434.4375 466.902344 418.425781 469.523438 401.101563 469.523438 C 357.523438 469.523438 332.589844 444.328125 332.589844 404.160156 C 332.589844 371.613281 352.800781 335.652344 397.425781 335.652344 C 438.898438 335.652344 454.648438 367.9375 454.648438 399.703125 C 454.648438 406.523438 453.863281 412.566406 453.339844 415.449219 "/>
<path style=" stroke:none;fill-rule:nonzero;fill:rgb(2.69928%,21.199036%,40.39917%);fill-opacity:1;" d="M 546.789063 406.269531 C 525.789063 406.269531 509.511719 411.246094 509.511719 426.472656 C 509.511719 436.710938 516.339844 441.699219 525.261719 441.699219 C 534.976563 441.699219 543.378906 435.132813 546.003906 427.003906 C 546.527344 424.898438 546.789063 422.535156 546.789063 420.175781 Z M 585.378906 435.921875 C 585.378906 447.996094 585.902344 459.816406 587.476563 466.902344 L 551.515625 466.902344 L 549.152344 454.039063 L 548.363281 454.039063 C 539.964844 464.277344 526.835938 469.789063 511.613281 469.789063 C 485.625 469.789063 470.136719 450.890625 470.136719 430.410156 C 470.136719 397.074219 500.0625 381.328125 545.476563 381.328125 L 545.476563 379.753906 C 545.476563 372.664063 541.800781 362.953125 522.113281 362.953125 C 508.988281 362.953125 495.074219 367.414063 486.675781 372.664063 L 479.324219 346.941406 C 488.25 341.953125 505.835938 335.386719 529.203125 335.386719 C 571.988281 335.386719 585.378906 360.589844 585.378906 391.039063 "/>
<path style=" stroke:none;fill-rule:nonzero;fill:rgb(2.69928%,21.199036%,40.39917%);fill-opacity:1;" d="M 617.140625 379.488281 C 617.140625 363.476563 616.617188 350.089844 616.09375 338.535156 L 649.953125 338.535156 L 651.53125 355.863281 L 652.316406 355.863281 C 657.828125 347.464844 669.378906 335.386719 691.167969 335.386719 C 707.96875 335.386719 720.832031 344.046875 726.34375 357.4375 L 726.867188 357.4375 C 731.855469 350.613281 737.367188 345.367188 743.667969 341.6875 C 750.757813 337.75 758.628906 335.386719 768.078125 335.386719 C 792.757813 335.386719 811.394531 352.714844 811.394531 391.300781 L 811.394531 466.902344 L 772.542969 466.902344 L 772.542969 397.074219 C 772.542969 378.433594 766.503906 367.679688 753.640625 367.679688 C 744.195313 367.679688 737.894531 373.976563 735.007813 381.589844 C 734.21875 384.476563 733.691406 388.414063 733.691406 391.824219 L 733.691406 466.902344 L 694.84375 466.902344 L 694.84375 394.714844 C 694.84375 378.699219 689.066406 367.679688 676.203125 367.679688 C 665.96875 367.679688 659.929688 375.550781 657.566406 381.851563 C 656.253906 385 655.992188 388.675781 655.992188 392.085938 L 655.992188 466.902344 L 617.140625 466.902344 "/>
<path style=" stroke:none;fill-rule:nonzero;fill:rgb(2.69928%,21.199036%,40.39917%);fill-opacity:1;" d="M 542.648438 589.019531 C 537.066406 590.917969 526.492188 593.535156 515.921875 593.535156 C 501.304688 593.535156 490.730469 589.855469 483.367188 582.84375 C 476.121094 575.835938 472.078125 565.382813 472.078125 553.617188 C 472.199219 527.007813 491.566406 511.800781 517.820313 511.800781 C 528.15625 511.800781 536.117188 513.824219 540.035156 515.605469 L 536.234375 530.214844 C 531.835938 528.195313 526.492188 526.773438 517.699219 526.773438 C 502.613281 526.773438 491.089844 535.207031 491.089844 552.667969 C 491.089844 569.296875 501.546875 578.925781 516.394531 578.925781 C 520.433594 578.925781 523.761719 578.445313 525.183594 577.855469 L 525.183594 560.980469 L 512.828125 560.980469 L 512.828125 546.84375 L 542.648438 546.84375 "/>
<path style=" stroke:none;fill-rule:nonzero;fill:rgb(2.69928%,21.199036%,40.39917%);fill-opacity:1;" d="M 556.566406 592.703125 L 574.621094 592.703125 L 574.621094 508.359375 L 556.566406 508.359375 Z M 556.566406 592.703125 "/>
<g clip-path="url(#clip1)" clip-rule="nonzero">
<path style=" stroke:none;fill-rule:nonzero;fill:rgb(2.69928%,21.199036%,40.39917%);fill-opacity:1;" d="M 604.566406 563.597656 C 604.566406 573.578125 608.726563 581.0625 616.445313 581.0625 C 623.574219 581.0625 627.96875 574.050781 627.96875 563.472656 C 627.96875 554.925781 624.644531 546.132813 616.445313 546.132813 C 607.894531 546.132813 604.566406 555.039063 604.566406 563.597656 M 646.621094 563 C 646.621094 584.269531 631.535156 594.011719 615.972656 594.011719 C 598.984375 594.011719 585.914063 582.84375 585.914063 564.070313 C 585.914063 545.183594 598.273438 533.183594 617.042969 533.183594 C 634.742188 533.183594 646.621094 545.421875 646.621094 563 "/>
</g>
<g clip-path="url(#clip2)" clip-rule="nonzero">
<path style=" stroke:none;fill-rule:nonzero;fill:rgb(2.69928%,21.199036%,40.39917%);fill-opacity:1;" d="M 675.859375 567.988281 C 675.859375 569.183594 675.980469 570.246094 676.21875 571.207031 C 677.40625 575.949219 681.5625 579.753906 686.792969 579.753906 C 694.511719 579.753906 699.261719 573.8125 699.261719 563.359375 C 699.261719 554.328125 695.226563 547.207031 686.792969 547.207031 C 681.921875 547.207031 677.40625 550.886719 676.21875 556.113281 C 675.980469 557.183594 675.859375 558.246094 675.859375 559.441406 Z M 657.804688 508.359375 L 675.859375 508.359375 L 675.859375 541.503906 L 676.097656 541.503906 C 679.546875 536.515625 685.605469 533.308594 693.683594 533.308594 C 707.582031 533.308594 717.679688 544.824219 717.5625 562.648438 C 717.5625 583.554688 704.371094 594.011719 691.066406 594.011719 C 684.296875 594.011719 677.644531 591.515625 673.605469 584.628906 L 673.367188 584.628906 L 672.652344 592.703125 L 657.328125 592.703125 C 657.566406 588.898438 657.804688 581.894531 657.804688 575.359375 "/>
</g>
<g clip-path="url(#clip3)" clip-rule="nonzero">
<path style=" stroke:none;fill-rule:nonzero;fill:rgb(2.69928%,21.199036%,40.39917%);fill-opacity:1;" d="M 759.75 565.257813 C 750.246094 565.257813 742.882813 567.515625 742.882813 574.410156 C 742.882813 579.042969 745.96875 581.300781 750.007813 581.300781 C 754.40625 581.300781 758.207031 578.328125 759.394531 574.648438 C 759.632813 573.691406 759.75 572.628906 759.75 571.554688 Z M 777.214844 578.679688 C 777.214844 584.152344 777.453125 589.496094 778.164063 592.703125 L 761.890625 592.703125 L 760.820313 586.886719 L 760.464844 586.886719 C 756.664063 591.515625 750.722656 594.011719 743.832031 594.011719 C 732.070313 594.011719 725.0625 585.453125 725.0625 576.1875 C 725.0625 561.101563 738.605469 553.976563 759.15625 553.976563 L 759.15625 553.257813 C 759.15625 550.050781 757.492188 545.660156 748.582031 545.660156 C 742.644531 545.660156 736.347656 547.679688 732.546875 550.050781 L 729.21875 538.410156 C 733.257813 536.152344 741.21875 533.183594 751.792969 533.183594 C 771.15625 533.183594 777.214844 544.585938 777.214844 558.371094 "/>
</g>
<path style=" stroke:none;fill-rule:nonzero;fill:rgb(2.69928%,21.199036%,40.39917%);fill-opacity:1;" d="M 791.605469 592.703125 L 809.660156 592.703125 L 809.660156 508.359375 L 791.605469 508.359375 Z M 791.605469 592.703125 "/>
<path style=" stroke:none;fill-rule:nonzero;fill:rgb(2.69928%,21.199036%,40.39917%);fill-opacity:1;" d="M 849.472656 574.050781 C 854.222656 576.546875 861.824219 579.042969 869.546875 579.042969 C 877.863281 579.042969 882.261719 575.597656 882.261719 570.371094 C 882.261719 565.382813 878.460938 562.527344 868.835938 559.207031 C 855.53125 554.453125 846.738281 547.082031 846.738281 535.441406 C 846.738281 521.78125 858.265625 511.441406 877.03125 511.441406 C 886.183594 511.441406 892.714844 513.226563 897.46875 515.484375 L 893.425781 529.976563 C 890.339844 528.433594 884.515625 526.175781 876.796875 526.175781 C 868.953125 526.175781 865.152344 529.855469 865.152344 533.894531 C 865.152344 539.007813 869.546875 541.265625 880.003906 545.183594 C 894.140625 550.410156 900.675781 557.773438 900.675781 569.0625 C 900.675781 582.484375 890.457031 593.886719 868.480469 593.886719 C 859.328125 593.886719 850.300781 591.390625 845.789063 588.898438 "/>
<path style=" stroke:none;fill-rule:nonzero;fill:rgb(2.69928%,21.199036%,40.39917%);fill-opacity:1;" d="M 948.441406 557.0625 C 948.441406 552.667969 946.542969 545.296875 938.226563 545.296875 C 930.621094 545.296875 927.535156 552.308594 927.058594 557.0625 Z M 927.179688 569.421875 C 927.652344 576.90625 935.136719 580.464844 943.574219 580.464844 C 949.75 580.464844 954.738281 579.640625 959.609375 577.96875 L 961.988281 590.207031 C 956.046875 592.703125 948.800781 593.886719 940.960938 593.886719 C 921.238281 593.886719 909.953125 582.484375 909.953125 564.308594 C 909.953125 549.578125 919.097656 533.308594 939.296875 533.308594 C 958.066406 533.308594 965.195313 547.917969 965.195313 562.289063 C 965.195313 565.382813 964.839844 568.113281 964.601563 569.421875 "/>
<path style=" stroke:none;fill-rule:nonzero;fill:rgb(2.69928%,21.199036%,40.39917%);fill-opacity:1;" d="M 976.019531 553.742188 C 976.019531 545.183594 975.902344 539.597656 975.542969 534.609375 L 990.992188 534.609375 L 991.703125 545.296875 L 992.175781 545.296875 C 995.148438 536.75 1002.160156 533.183594 1007.859375 533.183594 C 1009.519531 533.183594 1010.351563 533.308594 1011.660156 533.546875 L 1011.660156 550.527344 C 1010.238281 550.289063 1008.808594 550.050781 1006.789063 550.050781 C 1000.140625 550.050781 995.621094 553.617188 994.433594 559.207031 C 994.195313 560.390625 994.078125 561.8125 994.078125 563.238281 L 994.078125 592.703125 L 976.019531 592.703125 "/>
<path style=" stroke:none;fill-rule:nonzero;fill:rgb(2.69928%,21.199036%,40.39917%);fill-opacity:1;" d="M 1036.730469 534.609375 L 1044.570313 561.578125 C 1046 566.566406 1046.949219 571.082031 1047.898438 575.710938 L 1048.261719 575.710938 C 1049.210938 570.957031 1050.160156 566.566406 1051.460938 561.578125 L 1058.949219 534.609375 L 1077.960938 534.609375 L 1056.339844 592.703125 L 1038.28125 592.703125 L 1017.128906 534.609375 "/>
<path style=" stroke:none;fill-rule:nonzero;fill:rgb(2.69928%,21.199036%,40.39917%);fill-opacity:1;" d="M 1086.289063 534.609375 L 1104.347656 534.609375 L 1104.347656 592.703125 L 1086.289063 592.703125 Z M 1104.941406 518.453125 C 1104.941406 523.441406 1101.261719 527.484375 1095.199219 527.484375 C 1089.488281 527.484375 1085.808594 523.441406 1085.808594 518.453125 C 1085.808594 513.347656 1089.609375 509.421875 1095.441406 509.421875 C 1101.261719 509.421875 1104.820313 513.347656 1104.941406 518.453125 "/>
<path style=" stroke:none;fill-rule:nonzero;fill:rgb(2.69928%,21.199036%,40.39917%);fill-opacity:1;" d="M 1162.441406 591.15625 C 1159.238281 592.703125 1153.179688 593.886719 1146.289063 593.886719 C 1127.519531 593.886719 1115.519531 582.371094 1115.519531 564.195313 C 1115.519531 547.207031 1127.160156 533.308594 1148.78125 533.308594 C 1153.53125 533.308594 1158.761719 534.132813 1162.558594 535.554688 L 1159.710938 548.988281 C 1157.570313 548.03125 1154.371094 547.207031 1149.609375 547.207031 C 1140.109375 547.207031 1133.929688 553.976563 1134.050781 563.472656 C 1134.050781 574.050781 1141.179688 579.753906 1149.96875 579.753906 C 1154.25 579.753906 1157.570313 579.042969 1160.308594 577.855469 "/>
<path style=" stroke:none;fill-rule:nonzero;fill:rgb(2.69928%,21.199036%,40.39917%);fill-opacity:1;" d="M 1206.289063 557.0625 C 1206.289063 552.667969 1204.390625 545.296875 1196.078125 545.296875 C 1188.46875 545.296875 1185.390625 552.308594 1184.910156 557.0625 Z M 1185.03125 569.421875 C 1185.5 576.90625 1192.988281 580.464844 1201.421875 580.464844 C 1207.601563 580.464844 1212.589844 579.640625 1217.460938 577.96875 L 1219.839844 590.207031 C 1213.898438 592.703125 1206.648438 593.886719 1198.808594 593.886719 C 1179.089844 593.886719 1167.800781 582.484375 1167.800781 564.308594 C 1167.800781 549.578125 1176.949219 533.308594 1197.148438 533.308594 C 1215.921875 533.308594 1223.050781 547.917969 1223.050781 562.289063 C 1223.050781 565.382813 1222.691406 568.113281 1222.449219 569.421875 "/>
<g clip-path="url(#clip4)" clip-rule="nonzero">
<path style=" stroke:none;fill-rule:nonzero;fill:rgb(2.69928%,21.199036%,40.39917%);fill-opacity:1;" d="M 1233.75 577.019531 C 1237.078125 579.042969 1243.96875 581.300781 1249.320313 581.300781 C 1254.78125 581.300781 1257.039063 579.515625 1257.039063 576.546875 C 1257.039063 573.453125 1255.261719 572.03125 1248.601563 569.773438 C 1236.480469 565.730469 1231.851563 559.207031 1231.96875 552.308594 C 1231.96875 541.378906 1241.238281 533.183594 1255.609375 533.183594 C 1262.378906 533.183594 1268.320313 534.84375 1271.890625 536.628906 L 1268.800781 549.101563 C 1266.179688 547.679688 1261.078125 545.773438 1256.199219 545.773438 C 1251.808594 545.773438 1249.320313 547.554688 1249.320313 550.410156 C 1249.320313 553.257813 1251.570313 554.691406 1258.699219 557.183594 C 1269.75 560.980469 1274.261719 566.691406 1274.378906 575.125 C 1274.378906 586.050781 1265.949219 594.011719 1249.320313 594.011719 C 1241.710938 594.011719 1234.941406 592.226563 1230.539063 589.855469 "/>
</g>
<path style=" stroke:none;fill-rule:nonzero;fill:rgb(2.69928%,21.199036%,40.39917%);fill-opacity:1;" d="M 1163.679688 8.8125 C 1055.699219 -10.765625 911.6875 -2.578125 832.539063 83.8125 C 808.203125 110.382813 795.644531 136.597656 801.023438 173.078125 C 806.394531 209.507813 823.203125 244.1875 845.152344 273.449219 C 879.839844 319.714844 926.65625 369.679688 989.234375 365.800781 C 1015.320313 364.1875 1083.140625 348.800781 1076.660156 339.894531 C 1030.289063 314.015625 977.988281 280.945313 940.648438 243.15625 C 903.25 205.3125 867.308594 152.019531 888.613281 96.96875 C 903.0625 59.621094 948.953125 41.671875 984.523438 31.878906 C 1010.570313 24.710938 1037.398438 20.574219 1064.25 17.96875 C 1082.46875 16.191406 1100.761719 15.164063 1119.058594 14.65625 C 1125.078125 14.484375 1163.679688 18.730469 1163.679688 8.8125 "/>
<path style=" stroke:none;fill-rule:nonzero;fill:rgb(2.69928%,21.199036%,40.39917%);fill-opacity:1;" d="M 850.003906 396.5625 C 955.1875 400.1875 1112.71875 386.753906 1175.191406 288.96875 C 1192.859375 261.308594 1194.261719 228.96875 1179.449219 199.222656 C 1161.109375 162.367188 1125.28125 136.351563 1090.300781 116.671875 C 1059.800781 99.5 1028.289063 94.007813 1003.808594 69.523438 C 1068.089844 82.890625 1125.558594 110.363281 1173.238281 155.726563 C 1236.78125 216.1875 1262.441406 298.363281 1195.519531 368.265625 C 1143.371094 422.746094 1063.339844 444.640625 990.617188 452.875 C 960.273438 456.308594 824.097656 467.796875 850.003906 396.5625 "/>
</g>
</svg>
